<svg width="192" height="77" fill="none" xmlns="http://www.w3.org/2000/svg">
  <path d="M13.775 55.7V69h-3.059V58.208H4.712V69H1.653V55.7h12.122Zm9.11 11.077c.533 0 1.002-.076 1.407-.228a3.53 3.53 0 0 0 1.159-.76l1.577 1.71c-.963 1.102-2.369 1.653-4.218 1.653-1.153 0-2.172-.222-3.06-.665-.886-.456-1.57-1.083-2.051-1.881-.481-.798-.722-1.704-.722-2.717 0-1 .234-1.9.703-2.698a4.988 4.988 0 0 1 1.957-1.881c.836-.456 1.773-.684 2.812-.684.975 0 1.862.209 2.66.627a4.6 4.6 0 0 1 1.9 1.786c.481.773.722 1.691.722 2.755l-7.562 1.463a2.28 2.28 0 0 0 1.007 1.14c.469.253 1.039.38 1.71.38Zm-.436-5.909c-.747 0-1.355.24-1.824.722-.469.481-.716 1.146-.741 1.995l4.978-.969a2.233 2.233 0 0 0-.855-1.273c-.43-.317-.95-.475-1.558-.475Zm16.47.342h-5.244V69H30.73V58.778h8.19v2.432Zm12.411-2.432V69H48.5v-1.178c-.735.887-1.8 1.33-3.193 1.33-.962 0-1.836-.215-2.622-.646a4.643 4.643 0 0 1-1.824-1.843c-.443-.798-.665-1.723-.665-2.774s.222-1.976.665-2.774a4.643 4.643 0 0 1 1.824-1.843c.786-.43 1.66-.646 2.622-.646 1.305 0 2.325.412 3.06 1.235v-1.083h2.963Zm-5.51 7.942c.748 0 1.368-.253 1.862-.76.494-.52.741-1.21.741-2.071 0-.861-.247-1.545-.74-2.052-.495-.52-1.115-.779-1.863-.779-.76 0-1.387.26-1.88.779-.495.507-.742 1.19-.742 2.052 0 .861.247 1.552.741 2.071.494.507 1.121.76 1.881.76Zm14.125 2.432c-1.089 0-2.07-.222-2.945-.665a5.203 5.203 0 0 1-2.033-1.881c-.48-.798-.722-1.704-.722-2.717 0-1.013.241-1.919.722-2.717A5.066 5.066 0 0 1 57 59.31c.874-.456 1.856-.684 2.945-.684 1.077 0 2.014.228 2.812.684a3.937 3.937 0 0 1 1.767 1.919l-2.299 1.235c-.532-.937-1.298-1.406-2.299-1.406-.772 0-1.412.253-1.919.76-.506.507-.76 1.197-.76 2.071 0 .874.254 1.564.76 2.071.507.507 1.147.76 1.92.76 1.013 0 1.78-.469 2.298-1.406l2.3 1.254c-.368.81-.957 1.444-1.768 1.9-.798.456-1.735.684-2.812.684Zm6.523-6.688h5.376v2.375h-5.376v-2.375Zm18.251-3.04a10.204 10.204 0 0 0-3.667-1.273V69h-3.078V58.151c-1.305.19-2.533.614-3.686 1.273l-1.045-2.299c.912-.545 1.9-.956 2.964-1.235a12.918 12.918 0 0 1 3.287-.418c1.14 0 2.242.14 3.306.418 1.077.279 2.065.69 2.964 1.235l-1.045 2.299Zm7.977-.798c1.09 0 2.04.215 2.85.646a4.548 4.548 0 0 1 1.881 1.843c.443.798.665 1.729.665 2.793 0 1.039-.209 1.957-.627 2.755a4.584 4.584 0 0 1-1.767 1.843c-.76.43-1.634.646-2.622.646-1.305 0-2.324-.412-3.059-1.235v4.769h-2.964v-8.759c0-1.051.234-1.976.703-2.774a4.833 4.833 0 0 1 1.976-1.862c.849-.443 1.837-.665 2.964-.665Zm-.133 8.094c.773 0 1.4-.26 1.881-.779.481-.52.722-1.197.722-2.033 0-.849-.24-1.533-.722-2.052-.481-.532-1.108-.798-1.881-.798-.773 0-1.4.26-1.881.779-.469.52-.703 1.203-.703 2.052s.234 1.533.703 2.052c.469.52 1.096.779 1.881.779Zm18.884-7.942V69h-2.831v-1.178c-.734.887-1.798 1.33-3.192 1.33-.962 0-1.836-.215-2.622-.646a4.652 4.652 0 0 1-1.824-1.843c-.443-.798-.665-1.723-.665-2.774s.222-1.976.665-2.774a4.652 4.652 0 0 1 1.824-1.843c.786-.43 1.66-.646 2.622-.646 1.305 0 2.325.412 3.059 1.235v-1.083h2.964Zm-5.51 7.942c.748 0 1.368-.253 1.862-.76.494-.52.741-1.21.741-2.071 0-.861-.247-1.545-.741-2.052-.494-.52-1.114-.779-1.862-.779-.76 0-1.387.26-1.881.779-.494.507-.741 1.19-.741 2.052 0 .861.247 1.552.741 2.071.494.507 1.121.76 1.881.76Zm9.262-7.942h2.945v3.99h4.446v-3.99h2.964V69h-2.964v-3.819h-4.446V69h-2.945V58.778Zm19.006 10.374c-1.089 0-2.071-.222-2.945-.665a5.205 5.205 0 0 1-2.033-1.881c-.481-.798-.722-1.704-.722-2.717 0-1.013.241-1.919.722-2.717a5.068 5.068 0 0 1 2.033-1.862c.874-.456 1.856-.684 2.945-.684 1.077 0 2.014.228 2.812.684a3.939 3.939 0 0 1 1.767 1.919l-2.299 1.235c-.532-.937-1.298-1.406-2.299-1.406-.773 0-1.412.253-1.919.76-.507.507-.76 1.197-.76 2.071 0 .874.253 1.564.76 2.071.507.507 1.146.76 1.919.76 1.013 0 1.78-.469 2.299-1.406l2.299 1.254c-.367.81-.956 1.444-1.767 1.9-.798.456-1.735.684-2.812.684Zm21.317-5.301c0 1.583-.532 2.837-1.596 3.762-1.051.912-2.558 1.438-4.522 1.577v3.496h-2.717V69.19c-1.963-.14-3.477-.659-4.541-1.558-1.051-.912-1.577-2.172-1.577-3.781 0-1.583.52-2.812 1.558-3.686 1.052-.874 2.572-1.38 4.56-1.52v-3.743h2.717v3.743c1.964.14 3.471.652 4.522 1.539 1.064.887 1.596 2.109 1.596 3.667Zm-12.084 0c0 .912.26 1.615.779 2.109.52.494 1.343.804 2.47.931v-5.947c-1.127.114-1.95.412-2.47.893-.519.469-.779 1.14-.779 2.014Zm5.966 3.04c1.128-.127 1.951-.437 2.47-.931.532-.494.798-1.197.798-2.109 0-.874-.266-1.545-.798-2.014-.519-.481-1.342-.779-2.47-.893v5.947Zm14.167-.114c.532 0 1.001-.076 1.406-.228a3.524 3.524 0 0 0 1.159-.76l1.577 1.71c-.962 1.102-2.368 1.653-4.218 1.653-1.152 0-2.172-.222-3.059-.665-.886-.456-1.57-1.083-2.052-1.881-.481-.798-.722-1.704-.722-2.717 0-1 .235-1.9.703-2.698a4.994 4.994 0 0 1 1.957-1.881c.836-.456 1.774-.684 2.812-.684.976 0 1.862.209 2.66.627.798.405 1.432 1 1.9 1.786.482.773.722 1.691.722 2.755l-7.562 1.463a2.28 2.28 0 0 0 1.007 1.14c.469.253 1.039.38 1.71.38Zm-.437-5.909c-.747 0-1.355.24-1.824.722-.468.481-.715 1.146-.741 1.995l4.978-.969a2.23 2.23 0 0 0-.855-1.273c-.43-.317-.95-.475-1.558-.475Zm13.526-2.242c1.089 0 2.039.215 2.85.646a4.555 4.555 0 0 1 1.881 1.843c.443.798.665 1.729.665 2.793 0 1.039-.209 1.957-.627 2.755a4.584 4.584 0 0 1-1.767 1.843c-.76.43-1.634.646-2.622.646-1.305 0-2.325-.412-3.059-1.235v4.769h-2.964v-8.759c0-1.051.234-1.976.703-2.774a4.828 4.828 0 0 1 1.976-1.862c.848-.443 1.836-.665 2.964-.665Zm-.133 8.094c.772 0 1.399-.26 1.881-.779.481-.52.722-1.197.722-2.033 0-.849-.241-1.533-.722-2.052-.482-.532-1.109-.798-1.881-.798-.773 0-1.4.26-1.881.779-.469.52-.703 1.203-.703 2.052s.234 1.533.703 2.052c.468.52 1.095.779 1.881.779ZM21.578 23.66h-.011l-9.232-.046c-.19.787-.327 1.585-.413 2.39l8.455.043a16.353 16.353 0 0 1 10.592-3.886h.082c.127 0 .254.004.38.008l.89.048c.13.01.258.022.386.036l.072.009c.1.01.196.021.293.034l.509.073c.105.017.207.034.309.053l.047.008c.133.023.254.048.375.073l.098.022c.09.017.178.037.266.058l.47.116.366.098c.113.033.225.067.337.103l.847.29c.1.036.197.074.294.113l.811.346c.105.048.206.095.306.144l1.07.568c.11.064.21.124.308.185l.715.462c.1.068.193.131.285.197l.074.054c.065.048.134.098.202.15l.676.534c.089.072.168.139.244.206l.65.593c.076.072.146.142.214.212.003.003.038.034.04.039l.806.873.215.255 1.207 1.67.184.297.17.29.914 1.868.13.326a16.163 16.163 0 0 1 1.041 4.539l50.554.644c.054-1.631.356-3.245.894-4.786a.67.67 0 0 1 .04-.263c2.252-6.12 7.933-10.294 14.473-10.637.191-.012.383-.02.574-.02l.131-.005a3.89 3.89 0 0 1 .542.002l.241.009c.139.003.278.009.417.016l.181.013.105.009.336.03c.139.013.276.027.412.045l.144.018a16.326 16.326 0 0 1 6.264 2.19 16.397 16.397 0 0 1 4.884 4.504l7.49.037.002-.374a.343.343 0 0 1-.002-.056l.037-8.152a.664.664 0 0 1 .673-.664l.558.003.022-4.212a.65.65 0 0 1 .198-.471.755.755 0 0 1 .473-.194l.76.003c-1.435-2.542-3.886-6.764-5.667-9.199a.665.665 0 0 1 .128-.918c1.818-1.419 2.198-1.863 2.272-1.965.209-.294.394-.71.535-1.09l-20.676-.088-41.981-.207h-.058c-6.225 0-14.237 5.061-19.545 8.852 1.058-.404 2.134-.637 3.008-.555a.669.669 0 0 1 .496.3l.695-.514C61.27 6.15 66.265 2.45 73.228 2.45h.095c.281.002.98.002 2.126.002L85.49 2.45a.66.66 0 0 1 .62.413.67.67 0 0 1 .05.258l-.05 10.017a.67.67 0 0 1-.67.664l-29.18-.046-.006 1.308a.668.668 0 0 1-.488.639c-.475.133-1.22.16-1.762.16-.883 0-5.308-.08-5.747-1.678-.093-.332-.025-.69.198-1.07-.755.355-1.056.483-1.071.49a.717.717 0 0 1-.204.05c-.204.017-19.883 1.68-27.618 2.593l4.525.022a.67.67 0 0 1 .655.544c.098.52.147 1.059.144 1.604-.014 2.94-1.467 5.242-3.308 5.242Zm-.005-1.333.005.667v-.667c.921 0 1.958-1.609 1.969-3.915a7.383 7.383 0 0 0-.04-.81l-7.705-.038c-1.571 1.184-2.517 3.01-3.086 4.718l8.857.045Zm61.296-4.67h-.002a.666.666 0 0 1-.667-.669v-.296l-5.74-.028-.003.295a.67.67 0 0 1-.669.664h-.003a.666.666 0 0 1-.666-.67l.001-.362c.003-.699.53-1.263 1.19-1.263l6.055.03c.3.003.585.125.804.345.238.24.373.58.371.931v.36a.67.67 0 0 1-.671.663Zm27.347.135h-.003a.664.664 0 0 1-.616-.414.681.681 0 0 1-.05-.256l.001-.295-5.741-.028-.003.296a.669.669 0 0 1-.669.664h-.003a.673.673 0 0 1-.666-.672v-.359c.004-.7.542-1.254 1.19-1.264l6.055.03c.653.003 1.18.576 1.177 1.274l-.002.36a.671.671 0 0 1-.67.664Zm1.372-3.947h-.002l-23.031-.038a.673.673 0 0 1-.62-.413.664.664 0 0 1-.05-.257l.051-10.024a.67.67 0 0 1 .67-.664l23.032-.009a.654.654 0 0 1 .474.194.648.648 0 0 1 .145.218.65.65 0 0 1 .05.258l-.05 10.07a.665.665 0 0 1-.669.664Zm-22.36-1.37 21.693.034.043-8.735-21.692.01-.043 8.69Zm45.182 1.406h-.001l-19.707-.03a.667.667 0 0 1-.668-.672l.05-10.077a.665.665 0 0 1 .669-.664l10.135-.005c.051 0 .101.006.148.017 3.871.873 7.216 6.13 9.431 9.609l.456.715a.673.673 0 0 1-.144 1 .667.667 0 0 1-.361.107h-.008Zm-19.033-1.363 17.812.028c-1.968-3.09-5.152-7.989-8.378-8.778l-9.391.004-.043 8.746Zm-60.444-1.35v-.002l.001-.2c-2.18.198-5.017 2.127-5.351 2.857.437.303 2.26.707 4.42.707.401 0 .698-.016.914-.034l.016-3.233v-.095Zm1.334 1.254 28.506.046.044-8.682-9.368.002-2.133-.001h-.088c-6.52 0-11.325 3.56-15.566 6.7-.471.35-.933.692-1.39 1.024l-.004.555-.001.356ZM98.471 39.1h-.008l-51.85-.661a.666.666 0 0 1-.66-.638 14.807 14.807 0 0 0-.988-4.74l-.807-1.742-.159-.283a8.283 8.283 0 0 0-.148-.254l-1.286-1.82-.189-.224-.757-.819c-.087-.087-.152-.15-.217-.213l-.598-.548c-.073-.062-.145-.124-.217-.183l-.89-.69-.251-.174-.667-.43c-.088-.055-.18-.109-.271-.163l-.991-.525a9.13 9.13 0 0 0-.272-.128l-1.743-.67-.325-.1-.047-.016-.323-.087-.434-.107a9.369 9.369 0 0 0-.241-.054l-.098-.02c-.109-.022-.218-.045-.329-.066l-.054-.009c-.092-.017-.186-.032-.28-.048l-.476-.068-.263-.032-.07-.006a13.643 13.643 0 0 0-.349-.033l-.823-.045a8.138 8.138 0 0 0-.346-.006h-.076a15.013 15.013 0 0 0-9.9 3.719.668.668 0 0 1-.445.166l-4.164-.02a.655.655 0 0 1-.193.01l-.08-.01-5.959-.032a.846.846 0 0 0-.85.842l-.037 7.16a.85.85 0 0 0 .844.847l1.819.008a.67.67 0 0 1 .572.326c.578.969 1.547 2.206 2.902 2.675l1.662.008-.03-1.72c0-.018 0-.038.002-.058a13.7 13.7 0 0 1 1.206-4.713l.325-.66c.04-.078.08-.152.12-.225l.434-.74a7.09 7.09 0 0 1 .146-.222l.372-.541c.079-.107.156-.211.236-.316l1.24-1.4.808-.736c.069-.06.133-.112.197-.164l.566-.435c.076-.056.147-.109.22-.159l1.42-.873.241-.125c.106-.054.19-.098.274-.137l.356-.166c.073-.032.141-.063.212-.09l.06-.028.265-.109.661-.244c.093-.032.187-.063.281-.092l.283-.087.38-.105.228-.059.106-.026.245-.054.698-.134c.098-.016.198-.032.297-.045l.078-.01c.08-.011.16-.022.242-.031l.074-.009c.078-.01.157-.018.236-.025l.075-.007.311-.026.716-.03.315-.002.32.005.428.019c.107.005.208.012.309.022l.42.04c.078.006.161.017.242.027l.069.011c.1.01.203.027.306.042l.723.133c.1.02.197.042.296.066l.658.17.043.012c.095.026.185.055.277.084l.398.13.248.088.024.01a.144.144 0 0 1 .024.008l.654.262.26.115 1.262.653 1.107.723c.07.049.135.097.199.145l.467.364.21.174 1.12 1.066c.058.059.115.12.17.183l.382.437c.07.084.14.171.211.26l.369.484.217.304.36.556c.052.082.102.164.15.247l.279.496.123.234.316.664a13.682 13.682 0 0 1 1.171 4.915v1.32c-.007.156-.016.302-.026.439l54.75.698a.675.675 0 0 1 .663-.58h.07a14.07 14.07 0 0 1-.067-1.435c.028-5.554 3.415-10.554 8.51-12.689a.554.554 0 0 1 .083-.041c.104-.043.208-.082.315-.122a.684.684 0 0 1 .073-.024l.289-.106.091-.031.042-.015h.002l.003-.003c.153-.05.305-.099.46-.144h.003l.051-.017.041-.01a12.952 12.952 0 0 1 1.706-.39 13.97 13.97 0 0 1 1.732-.17h.065c.152-.005.306-.01.46-.01l.203.002c.244.006.487.017.727.033l.235.018a13.833 13.833 0 0 1 6.822 2.51 13.904 13.904 0 0 1 4.621 5.628.658.658 0 0 1 .139.204 13.73 13.73 0 0 1 1.039 6.949l11.661.056a.868.868 0 0 0 .876-.862l.026-5.175-.005-.06a.679.679 0 0 1 .329-.61l.014-2.823-.944-.005h-.035l-12.782-.062a.67.67 0 0 1-.55-.292 15.029 15.029 0 0 0-4.529-4.317 14.978 14.978 0 0 0-5.887-2.095l-.141-.017a13.531 13.531 0 0 0-.678-.069l-.271-.022a10.962 10.962 0 0 0-.229-.01c-.035 0-.068 0-.102-.003h-.075l-.231-.01h-.01a2.705 2.705 0 0 0-.4-.002l-.05.001-.126.006c-.174.003-.349.006-.525.016a14.967 14.967 0 0 0-13.194 9.515.647.647 0 0 1-.04.25 14.85 14.85 0 0 0-.915 5.075l.002.068a.662.662 0 0 1-.663.791h-.004ZM18.718 15.007c6.94-.86 26.582-2.53 28.237-2.672.181-.08.633-.283 1.462-.681C56.102 5.884 64.93 0 72.208 0h.066l41.98.207 21.581.09a.67.67 0 0 1 .648.826c-.015.06-.372 1.486-1.004 2.37-.166.23-.56.668-2.034 1.845 2.694 3.84 6.406 10.649 6.569 10.95a.68.68 0 0 1 .065.17c.022.095.519 2.32.507 4.502-.005 1.397-.026 5.396-.039 7.985l.928.005a.42.42 0 0 1 .079.005.669.669 0 0 1 .638.67l-.02 4.06a.67.67 0 0 1-.324.568l-.024 4.702a2.219 2.219 0 0 1-.656 1.552c-.414.41-.972.64-1.554.639l-12.436-.062a.664.664 0 0 1-.64-.49.66.66 0 0 1-.016-.287 12.518 12.518 0 0 0-.759-6.776.67.67 0 0 1-.132-.2 12.57 12.57 0 0 0-4.175-5.21 12.502 12.502 0 0 0-6.246-2.328l-.21-.017a14.553 14.553 0 0 0-.657-.028l-.144-.005a9.45 9.45 0 0 0-.453.01l-.26.009a12.52 12.52 0 0 0-2.597.411l-.173.047-.016.007-.182.05c-.182.054-.36.112-.538.174-5.01 1.76-8.377 6.476-8.404 11.739-.004.63.043 1.266.134 1.893a.668.668 0 0 1-.637.871l-.009.001h-.166a.666.666 0 0 1-.665.586h-.007l-56.06-.715a.667.667 0 0 1-.635-.485.666.666 0 0 1-.092-.423c.03-.262.054-.555.07-.892l.001-1.253a12.349 12.349 0 0 0-1.055-4.4l-.293-.613a11.438 11.438 0 0 0-.098-.19l-.263-.464a8.196 8.196 0 0 0-.133-.223l-.328-.5a8.868 8.868 0 0 0-.195-.276l-.33-.435a10.96 10.96 0 0 0-.194-.236l-.344-.398-.149-.16-1.021-.968a7.972 7.972 0 0 0-.185-.155l-.43-.336a10.484 10.484 0 0 0-.17-.125l-1.344-.846-.803-.4-.226-.1-.596-.24a5.17 5.17 0 0 0-.26-.09l-.37-.124c-.078-.021-.16-.049-.242-.073a1.243 1.243 0 0 0-.051-.015l-.593-.152c-.086-.02-.17-.04-.256-.058l-.667-.122-.26-.037-.071-.008c-.07-.01-.14-.018-.21-.026l-.397-.039-.267-.017-.396-.016-.284-.007c-.091 0-.186.002-.282.004l-.652.028-.275.021-.073.008c-.072.008-.14.013-.21.022l-.076.008-.215.027-.076.012c-.083.01-.17.025-.257.039l-.95.195a5.49 5.49 0 0 0-.201.05l-.353.098c-.075.021-.151.046-.228.07-.109.033-.19.06-.273.088l-.605.225c-.073.028-.152.06-.23.093l-.574.26-.228.113-1.524.916-.19.136-.512.395a7.14 7.14 0 0 0-.177.144l-1.275 1.24-.567.679a14.94 14.94 0 0 0-.228.304l-.34.492a5.031 5.031 0 0 0-.124.194l-.8 1.478a12.334 12.334 0 0 0-1.085 4.221l.041 2.37a.673.673 0 0 1-.672.678l-2.455-.011a.7.7 0 0 1-.198-.033c-1.336-.42-2.554-1.444-3.54-2.969l-1.448-.006a2.178 2.178 0 0 1-1.54-.643A2.194 2.194 0 0 1 8 35.323l.036-7.16c.007-.577.24-1.128.65-1.534a2.18 2.18 0 0 1 1.536-.632h.353c.222-2.357 1.464-10.165 8.144-10.99h-.001Zm118.039 12.824a.576.576 0 0 1 .081 0l2.33.012.031-6.817-2.335-.013h-.005l-.553-.003-.029 6.818.48.003Zm.783-8.15.841.006.797.004a23.479 23.479 0 0 0-.408-2.818l-.406-.733-.806-.005-.018 3.547ZM31.076 50a11.635 11.635 0 0 1-8.319-3.456c-4.541-4.57-4.503-11.967.082-16.492a11.663 11.663 0 0 1 8.237-3.372 11.63 11.63 0 0 1 4.504.89 11.665 11.665 0 0 1 3.813 2.565 11.65 11.65 0 0 1-.081 16.49 11.655 11.655 0 0 1-8.236 3.374Zm0-21.987A10.325 10.325 0 0 0 23.782 31a10.318 10.318 0 0 0-.074 14.603 10.315 10.315 0 0 0 7.367 3.062 10.328 10.328 0 0 0 7.294-2.988 10.316 10.316 0 0 0 .073-14.603 10.298 10.298 0 0 0-7.366-3.062Zm0 19a8.652 8.652 0 0 1-6.189-2.57 8.613 8.613 0 0 1-2.52-6.145 8.61 8.61 0 0 1 2.58-6.122 8.668 8.668 0 0 1 6.128-2.511c.342 0 .68.02 1.015.058a.625.625 0 0 1 .127.016 8.658 8.658 0 0 1 5.047 2.497 8.64 8.64 0 0 1 2.467 7.02l-.003.035a8.63 8.63 0 0 1-2.526 5.214 8.669 8.669 0 0 1-6.126 2.508Zm-.728-6.592a.67.67 0 0 1 .311.076.645.645 0 0 1 .4.562l.34 4.614.033-.002.387-4.608a.667.667 0 0 1 .431-.568l.025-.014a.672.672 0 0 1 .694.112l3.362 2.892.045-.046-2.868-3.379a.664.664 0 0 1-.105-.692l.02-.044a.66.66 0 0 1 .566-.403l4.446-.326.004-.062-4.446-.37a.665.665 0 0 1-.564-.411l-.019-.044a.667.667 0 0 1 .113-.689l3.071-3.544-.015-.018-3.59 3.026a.675.675 0 0 1-.739.084.712.712 0 0 1-.407-.564l-.355-4.822-.404 4.817a.667.667 0 0 1-.415.562l-.042.017a.672.672 0 0 1-.692-.11l-3.674-3.16 3.135 3.69a.665.665 0 0 1 .082.743.65.65 0 0 1-.564.398l-4.84.354 4.837.404a.665.665 0 0 1 .566.418l.017.036a.667.667 0 0 1-.113.689l-3.174 3.663 3.708-3.124a.677.677 0 0 1 .434-.158h-.001Zm-3.12 4.168a7.25 7.25 0 0 0 2.823 1.008l-.235-3.188-2.588 2.18Zm5.82-2.164-.255 3.044a7.304 7.304 0 0 0 2.494-1.12l-2.239-1.924Zm-9.189-2.61a7.2 7.2 0 0 0 1.367 2.977l2.315-2.67-3.682-.306Zm11.487.343 1.881 2.218a7.245 7.245 0 0 0 1.036-2.43l-2.917.212Zm.016-3.218 2.98.247a7.265 7.265 0 0 0-.943-2.6l-2.037 2.353Zm-10.24-2.906a7.335 7.335 0 0 0-1.31 3.14l3.745-.272-2.436-2.868Zm7.712-2.816.253 3.434 2.499-2.106a7.27 7.27 0 0 0-2.752-1.328Zm-5.804.99 2.825 2.427.299-3.57a7.28 7.28 0 0 0-3.123 1.143h-.001Zm4.958 8.299h-.004l-1.086-.006a.668.668 0 0 1-.473-.198l-.765-.768a.663.663 0 0 1-.192-.474l.004-1.083a.666.666 0 0 1 .2-.47l.77-.762a.617.617 0 0 1 .475-.192l1.088.004a.678.678 0 0 1 .472.197l.765.77a.668.668 0 0 1 .194.474l-.005 1.082a.667.667 0 0 1-.198.47l-.774.763a.67.67 0 0 1-.471.193Zm-.806-1.339.531.004.38-.374.002-.53-.374-.378h-.533l-.378.371-.002.531.374.376ZM114.355 50a11.664 11.664 0 0 1-8.318-3.456c-4.542-4.57-4.504-11.967.082-16.492a11.66 11.66 0 0 1 8.236-3.372 11.64 11.64 0 0 1 8.317 3.455 11.63 11.63 0 0 1 3.382 8.262 11.645 11.645 0 0 1-3.462 8.228 11.658 11.658 0 0 1-8.236 3.374h-.001Zm0-21.987A10.325 10.325 0 0 0 107.062 31a10.3 10.3 0 0 0-3.067 7.287 10.3 10.3 0 0 0 2.993 7.317 10.34 10.34 0 0 0 7.367 3.062 10.327 10.327 0 0 0 7.294-2.99 10.31 10.31 0 0 0 .072-14.603 10.319 10.319 0 0 0-7.366-3.061Zm0 19a8.655 8.655 0 0 1-6.187-2.57 8.59 8.59 0 0 1-2.522-6.146 8.611 8.611 0 0 1 2.581-6.121 8.67 8.67 0 0 1 6.128-2.511c.342 0 .68.02 1.014.058a.627.627 0 0 1 .128.016 8.659 8.659 0 0 1 5.047 2.497 8.65 8.65 0 0 1 2.19 8.457 8.72 8.72 0 0 1-3.134 4.57 8.665 8.665 0 0 1-5.246 1.75h.001Zm-.729-6.592c.109 0 .215.025.312.075a.648.648 0 0 1 .401.563l.34 4.614.033-.002.386-4.608a.67.67 0 0 1 .428-.568l.03-.014a.67.67 0 0 1 .691.112l3.364 2.892.045-.046-2.869-3.379a.666.666 0 0 1-.108-.685l.026-.055a.65.65 0 0 1 .564-.4l4.447-.325.002-.062-4.445-.37a.668.668 0 0 1-.56-.402l-.022-.052a.666.666 0 0 1 .112-.69l3.071-3.545-.016-.017-3.589 3.026a.676.676 0 0 1-.742.084.719.719 0 0 1-.403-.564l-.356-4.824-.404 4.82a.672.672 0 0 1-.412.562l-.044.017a.67.67 0 0 1-.694-.111l-3.675-3.16 3.136 3.69a.669.669 0 0 1 .101.702c-.099.226-.336.42-.583.44l-4.84.354 4.837.404c.249.022.466.18.564.41l.018.044a.664.664 0 0 1-.113.689l-3.173 3.665 3.709-3.127a.675.675 0 0 1 .431-.157Zm-3.118 4.168c.862.53 1.817.87 2.822 1.008l-.234-3.188-2.588 2.18Zm5.82-2.164-.255 3.044a7.307 7.307 0 0 0 2.494-1.12l-2.239-1.924Zm-9.189-2.61a7.198 7.198 0 0 0 1.368 2.977l2.313-2.67-3.681-.306Zm11.486.343 1.882 2.218a7.228 7.228 0 0 0 1.035-2.43l-2.917.212Zm.017-3.218 2.979.247a7.253 7.253 0 0 0-.943-2.6l-2.036 2.353Zm-10.24-2.906a7.344 7.344 0 0 0-1.31 3.14l3.745-.272-2.435-2.868Zm7.712-2.816.253 3.433 2.498-2.105a7.265 7.265 0 0 0-2.751-1.328Zm-5.804.99 2.824 2.427.299-3.57a7.285 7.285 0 0 0-3.123 1.143Zm4.958 8.299h-.003l-1.088-.006a.667.667 0 0 1-.472-.198l-.765-.768a.661.661 0 0 1-.193-.473l.005-1.084a.66.66 0 0 1 .199-.47l.771-.762c.127-.124.309-.177.475-.192l1.087.004a.67.67 0 0 1 .473.2l.765.767a.67.67 0 0 1 .193.474l-.005 1.082a.657.657 0 0 1-.198.47l-.773.763a.672.672 0 0 1-.471.193Zm-.807-1.339.532.004.379-.374.002-.53-.374-.378h-.531l-.379.371-.003.531.374.376Zm31.5-14.15a.66.66 0 0 1-.471-.196.661.661 0 0 1-.194-.474.668.668 0 0 1 .669-.662h.004l31.161.205c3.594-.92 4.346-3.163 4.499-4.245l-36.025-.144a.664.664 0 0 1-.616-.414.67.67 0 0 1 .619-.92h.002l36.722.146a.667.667 0 0 1 .663.607c.006.047.345 4.604-5.254 6.188-1.686 5.027-5.442 5.196-5.935 5.196l-.048-.001-.169-.001c-1.283 4.909-4.752 5.351-5.959 5.351-.168 0-.293-.007-.359-.015l-2.237-.032a.787.787 0 0 1-.012.068c-1.225 5.154-4.795 5.611-6.022 5.611-.172 0-.298-.008-.365-.014l-11.079-.279a.66.66 0 0 1-.467-.207.669.669 0 0 1 .243-1.085.661.661 0 0 1 .258-.041l11.104.279c.025.002.052.003.077.007.146.019 3.649.425 4.892-4.358l-15.903-.228a.668.668 0 0 1 .01-1.334h.009l19.537.28c.03 0 .057.003.086.008.145.017 3.481.406 4.799-4.02l-24.32-.15a.666.666 0 0 1-.466-1.142.665.665 0 0 1 .471-.193h.004l25.895.162c.132.004 2.979.008 4.487-3.751l-30.31-.201Z" fill="#fff"/>
</svg>