<svg width="192" height="77" viewBox="0 0 192 77" fill="none" xmlns="http://www.w3.org/2000/svg">
<path d="M13.775 55.7V69H10.716V58.208H4.712V69H1.653V55.7H13.775ZM22.8859 66.777C23.4179 66.777 23.8866 66.701 24.2919 66.549C24.7099 66.3843 25.0963 66.131 25.4509 65.789L27.0279 67.499C26.0653 68.601 24.6593 69.152 22.8099 69.152C21.6573 69.152 20.6376 68.9303 19.7509 68.487C18.8643 68.031 18.1803 67.404 17.6989 66.606C17.2176 65.808 16.9769 64.9023 16.9769 63.889C16.9769 62.8883 17.2113 61.989 17.6799 61.191C18.1613 60.3803 18.8136 59.7533 19.6369 59.31C20.4729 58.854 21.4103 58.626 22.4489 58.626C23.4243 58.626 24.3109 58.835 25.1089 59.253C25.9069 59.6583 26.5403 60.2537 27.0089 61.039C27.4903 61.8117 27.7309 62.73 27.7309 63.794L20.1689 65.257C20.3843 65.7637 20.7199 66.1437 21.1759 66.397C21.6446 66.6503 22.2146 66.777 22.8859 66.777ZM22.4489 60.868C21.7016 60.868 21.0936 61.1087 20.6249 61.59C20.1563 62.0713 19.9093 62.7363 19.8839 63.585L24.8619 62.616C24.7226 62.084 24.4376 61.6597 24.0069 61.343C23.5763 61.0263 23.0569 60.868 22.4489 60.868ZM38.9193 61.21H33.6753V69H30.7303V58.778H38.9193V61.21ZM51.3303 58.778V69H48.4993V67.822C47.7646 68.7087 46.7006 69.152 45.3073 69.152C44.3446 69.152 43.4706 68.9367 42.6853 68.506C41.9126 68.0753 41.3046 67.461 40.8613 66.663C40.4179 65.865 40.1963 64.9403 40.1963 63.889C40.1963 62.8377 40.4179 61.913 40.8613 61.115C41.3046 60.317 41.9126 59.7027 42.6853 59.272C43.4706 58.8413 44.3446 58.626 45.3073 58.626C46.6119 58.626 47.6316 59.0377 48.3663 59.861V58.778H51.3303ZM45.8203 66.72C46.5676 66.72 47.1883 66.4667 47.6823 65.96C48.1763 65.4407 48.4233 64.7503 48.4233 63.889C48.4233 63.0277 48.1763 62.3437 47.6823 61.837C47.1883 61.3177 46.5676 61.058 45.8203 61.058C45.0603 61.058 44.4333 61.3177 43.9393 61.837C43.4453 62.3437 43.1983 63.0277 43.1983 63.889C43.1983 64.7503 43.4453 65.4407 43.9393 65.96C44.4333 66.4667 45.0603 66.72 45.8203 66.72ZM59.9454 69.152C58.8561 69.152 57.8744 68.9303 57.0004 68.487C56.1391 68.031 55.4614 67.404 54.9674 66.606C54.4861 65.808 54.2454 64.9023 54.2454 63.889C54.2454 62.8757 54.4861 61.97 54.9674 61.172C55.4614 60.374 56.1391 59.7533 57.0004 59.31C57.8744 58.854 58.8561 58.626 59.9454 58.626C61.0221 58.626 61.9594 58.854 62.7574 59.31C63.5681 59.7533 64.1571 60.393 64.5244 61.229L62.2254 62.464C61.6934 61.5267 60.9271 61.058 59.9264 61.058C59.1538 61.058 58.5141 61.3113 58.0074 61.818C57.5008 62.3247 57.2474 63.015 57.2474 63.889C57.2474 64.763 57.5008 65.4533 58.0074 65.96C58.5141 66.4667 59.1538 66.72 59.9264 66.72C60.9398 66.72 61.7061 66.2513 62.2254 65.314L64.5244 66.568C64.1571 67.3787 63.5681 68.012 62.7574 68.468C61.9594 68.924 61.0221 69.152 59.9454 69.152ZM66.4675 62.464H71.8445V64.839H66.4675V62.464ZM84.7191 59.424C83.5791 58.7653 82.3567 58.341 81.0521 58.151V69H77.9741V58.151C76.6694 58.341 75.4407 58.7653 74.2881 59.424L73.2431 57.125C74.1551 56.5803 75.1431 56.1687 76.2071 55.89C77.2711 55.6113 78.3667 55.472 79.4941 55.472C80.6341 55.472 81.7361 55.6113 82.8001 55.89C83.8767 56.1687 84.8647 56.5803 85.7641 57.125L84.7191 59.424ZM92.696 58.626C93.7853 58.626 94.7353 58.8413 95.546 59.272C96.3566 59.7027 96.9836 60.317 97.427 61.115C97.8703 61.913 98.092 62.844 98.092 63.908C98.092 64.9467 97.883 65.865 97.465 66.663C97.047 67.4483 96.458 68.0627 95.698 68.506C94.938 68.9367 94.064 69.152 93.076 69.152C91.7713 69.152 90.7516 68.7403 90.017 67.917V72.686H87.053V63.927C87.053 62.8757 87.2873 61.951 87.756 61.153C88.2246 60.355 88.8833 59.7343 89.732 59.291C90.5806 58.8477 91.5686 58.626 92.696 58.626ZM92.563 66.72C93.3356 66.72 93.9626 66.4603 94.444 65.941C94.9253 65.4217 95.166 64.744 95.166 63.908C95.166 63.0593 94.9253 62.3753 94.444 61.856C93.9626 61.324 93.3356 61.058 92.563 61.058C91.7903 61.058 91.1633 61.3177 90.682 61.837C90.2133 62.3563 89.979 63.0403 89.979 63.889C89.979 64.7377 90.2133 65.4217 90.682 65.941C91.1506 66.4603 91.7776 66.72 92.563 66.72ZM111.447 58.778V69H108.616V67.822C107.882 68.7087 106.818 69.152 105.424 69.152C104.462 69.152 103.588 68.9367 102.802 68.506C102.03 68.0753 101.422 67.461 100.978 66.663C100.535 65.865 100.313 64.9403 100.313 63.889C100.313 62.8377 100.535 61.913 100.978 61.115C101.422 60.317 102.03 59.7027 102.802 59.272C103.588 58.8413 104.462 58.626 105.424 58.626C106.729 58.626 107.749 59.0377 108.483 59.861V58.778H111.447ZM105.937 66.72C106.685 66.72 107.305 66.4667 107.799 65.96C108.293 65.4407 108.54 64.7503 108.54 63.889C108.54 63.0277 108.293 62.3437 107.799 61.837C107.305 61.3177 106.685 61.058 105.937 61.058C105.177 61.058 104.55 61.3177 104.056 61.837C103.562 62.3437 103.315 63.0277 103.315 63.889C103.315 64.7503 103.562 65.4407 104.056 65.96C104.55 66.4667 105.177 66.72 105.937 66.72ZM115.199 58.778H118.144V62.768H122.59V58.778H125.554V69H122.59V65.181H118.144V69H115.199V58.778ZM134.205 69.152C133.116 69.152 132.134 68.9303 131.26 68.487C130.399 68.031 129.721 67.404 129.227 66.606C128.746 65.808 128.505 64.9023 128.505 63.889C128.505 62.8757 128.746 61.97 129.227 61.172C129.721 60.374 130.399 59.7533 131.26 59.31C132.134 58.854 133.116 58.626 134.205 58.626C135.282 58.626 136.219 58.854 137.017 59.31C137.828 59.7533 138.417 60.393 138.784 61.229L136.485 62.464C135.953 61.5267 135.187 61.058 134.186 61.058C133.413 61.058 132.774 61.3113 132.267 61.818C131.76 62.3247 131.507 63.015 131.507 63.889C131.507 64.763 131.76 65.4533 132.267 65.96C132.774 66.4667 133.413 66.72 134.186 66.72C135.199 66.72 135.966 66.2513 136.485 65.314L138.784 66.568C138.417 67.3787 137.828 68.012 137.017 68.468C136.219 68.924 135.282 69.152 134.205 69.152ZM155.522 63.851C155.522 65.4343 154.99 66.6883 153.926 67.613C152.875 68.525 151.368 69.0507 149.404 69.19V72.686H146.687V69.19C144.724 69.0507 143.21 68.5313 142.146 67.632C141.095 66.72 140.569 65.4597 140.569 63.851C140.569 62.2677 141.089 61.039 142.127 60.165C143.179 59.291 144.699 58.7843 146.687 58.645V54.902H149.404V58.645C151.368 58.7843 152.875 59.2973 153.926 60.184C154.99 61.0707 155.522 62.293 155.522 63.851ZM143.438 63.851C143.438 64.763 143.698 65.466 144.217 65.96C144.737 66.454 145.56 66.7643 146.687 66.891V60.944C145.56 61.058 144.737 61.3557 144.217 61.837C143.698 62.3057 143.438 62.977 143.438 63.851ZM149.404 66.891C150.532 66.7643 151.355 66.454 151.874 65.96C152.406 65.466 152.672 64.763 152.672 63.851C152.672 62.977 152.406 62.3057 151.874 61.837C151.355 61.3557 150.532 61.058 149.404 60.944V66.891ZM163.571 66.777C164.103 66.777 164.572 66.701 164.977 66.549C165.395 66.3843 165.782 66.131 166.136 65.789L167.713 67.499C166.751 68.601 165.345 69.152 163.495 69.152C162.343 69.152 161.323 68.9303 160.436 68.487C159.55 68.031 158.866 67.404 158.384 66.606C157.903 65.808 157.662 64.9023 157.662 63.889C157.662 62.8883 157.897 61.989 158.365 61.191C158.847 60.3803 159.499 59.7533 160.322 59.31C161.158 58.854 162.096 58.626 163.134 58.626C164.11 58.626 164.996 58.835 165.794 59.253C166.592 59.6583 167.226 60.2537 167.694 61.039C168.176 61.8117 168.416 62.73 168.416 63.794L160.854 65.257C161.07 65.7637 161.405 66.1437 161.861 66.397C162.33 66.6503 162.9 66.777 163.571 66.777ZM163.134 60.868C162.387 60.868 161.779 61.1087 161.31 61.59C160.842 62.0713 160.595 62.7363 160.569 63.585L165.547 62.616C165.408 62.084 165.123 61.6597 164.692 61.343C164.262 61.0263 163.742 60.868 163.134 60.868ZM176.66 58.626C177.749 58.626 178.699 58.8413 179.51 59.272C180.32 59.7027 180.947 60.317 181.391 61.115C181.834 61.913 182.056 62.844 182.056 63.908C182.056 64.9467 181.847 65.865 181.429 66.663C181.011 67.4483 180.422 68.0627 179.662 68.506C178.902 68.9367 178.028 69.152 177.04 69.152C175.735 69.152 174.715 68.7403 173.981 67.917V72.686H171.017V63.927C171.017 62.8757 171.251 61.951 171.72 61.153C172.188 60.355 172.847 59.7343 173.696 59.291C174.544 58.8477 175.532 58.626 176.66 58.626ZM176.527 66.72C177.299 66.72 177.926 66.4603 178.408 65.941C178.889 65.4217 179.13 64.744 179.13 63.908C179.13 63.0593 178.889 62.3753 178.408 61.856C177.926 61.324 177.299 61.058 176.527 61.058C175.754 61.058 175.127 61.3177 174.646 61.837C174.177 62.3563 173.943 63.0403 173.943 63.889C173.943 64.7377 174.177 65.4217 174.646 65.941C175.114 66.4603 175.741 66.72 176.527 66.72Z" fill="black"/>
<path d="M21.5776 23.6601H21.5667L12.3354 23.6144C12.1458 24.4008 12.0077 25.1989 11.9222 26.0035L20.3771 26.047C23.3388 23.5349 27.0919 22.1581 30.9694 22.1614H31.0507C31.1776 22.1614 31.3045 22.1646 31.4313 22.169L32.3205 22.2169C32.4507 22.2278 32.5786 22.2386 32.7066 22.2528L32.7792 22.2615C32.879 22.2724 32.9755 22.2833 33.072 22.2963L33.5806 22.3692C33.6858 22.3856 33.7877 22.403 33.8896 22.4215L33.9374 22.4302C34.0696 22.4531 34.1911 22.4781 34.3115 22.5031L34.4101 22.5249C34.4991 22.5423 34.588 22.5619 34.6758 22.5826L35.1464 22.699L35.5119 22.797C35.6247 22.83 35.7371 22.8645 35.8491 22.9004L36.696 23.1899C36.7958 23.2258 36.8934 23.2639 36.9899 23.3031L37.801 23.6492C37.9062 23.6971 38.007 23.7439 38.1068 23.7929L39.1771 24.3611C39.2866 24.4253 39.3864 24.4851 39.4851 24.5461L40.1997 25.0076C40.2994 25.0762 40.3927 25.1393 40.4849 25.2046L40.5586 25.259C40.6237 25.3069 40.6931 25.357 40.7614 25.4092L41.4369 25.9425C41.5259 26.0155 41.605 26.0819 41.6809 26.1493L42.3316 26.7425C42.4075 26.8144 42.4769 26.884 42.5452 26.9537C42.5484 26.9569 42.5831 26.9885 42.5853 26.9929L43.391 27.8658L43.6057 28.1205L44.8126 29.7912L44.997 30.0883C45.0555 30.1874 45.1119 30.2832 45.1661 30.3789L46.0814 32.2456L46.2115 32.5721C46.2549 32.6788 46.2928 32.7822 46.3308 32.8856C46.8263 34.245 47.1343 35.6632 47.2525 37.1108L97.8064 37.7552C97.8604 36.1236 98.1617 34.5099 98.6999 32.9694C98.6955 32.8798 98.7092 32.7902 98.7401 32.706C100.992 26.5869 106.673 22.4117 113.213 22.0688C113.404 22.0568 113.596 22.0499 113.787 22.0482L113.918 22.0438C114.099 22.0319 114.28 22.0327 114.46 22.046L114.701 22.0547C114.84 22.058 114.979 22.0635 115.118 22.071L115.299 22.0841L115.404 22.0928C115.516 22.1019 115.628 22.1117 115.74 22.1222C115.879 22.1363 116.016 22.1505 116.152 22.1679L116.296 22.1864C118.511 22.4794 120.643 23.2244 122.56 24.3756C124.477 25.5268 126.139 27.0598 127.444 28.8802L134.934 28.9172L134.936 28.5428C134.934 28.5243 134.933 28.5058 134.934 28.4873L134.971 20.335C134.971 20.1576 135.043 19.9889 135.169 19.8637C135.298 19.7421 135.467 19.6733 135.644 19.671L136.202 19.6743L136.224 15.4621C136.224 15.2836 136.294 15.1138 136.422 14.9908C136.553 14.873 136.72 14.8045 136.895 14.7971L137.655 14.8004C136.22 12.2578 133.769 8.03582 131.988 5.60102C131.886 5.46151 131.843 5.28753 131.867 5.11614C131.89 4.94476 131.98 4.78952 132.116 4.68348C133.934 3.26418 134.314 2.8201 134.388 2.71779C134.597 2.42392 134.782 2.00814 134.923 1.62719L114.247 1.54012L72.2659 1.33332H72.2085C65.983 1.33332 57.9705 6.39448 52.6625 10.1855C53.7208 9.78056 54.7965 9.54764 55.6706 9.63036C55.7704 9.63978 55.8668 9.67157 55.9528 9.72337C56.0387 9.77517 56.112 9.84567 56.1672 9.92967L56.8623 9.41594C61.2703 6.15067 66.265 2.45004 73.2278 2.45004H73.3232C73.6041 2.45221 74.3035 2.45221 75.4486 2.45221L85.49 2.45004C85.5781 2.44902 85.6655 2.46565 85.7471 2.49896C85.8288 2.53227 85.9029 2.58158 85.9653 2.64401C86.0277 2.70645 86.0771 2.78075 86.1106 2.86256C86.144 2.94438 86.1609 3.03207 86.1601 3.12051L86.1103 13.1383C86.1088 13.3155 86.0375 13.4849 85.9119 13.6093C85.7863 13.7338 85.6166 13.8031 85.4401 13.8023L56.2594 13.7555L56.2539 15.0638C56.253 15.2091 56.2049 15.3501 56.1168 15.4654C56.0287 15.5807 55.9055 15.664 55.766 15.7027C55.291 15.8365 54.546 15.8638 54.0039 15.8638C53.1212 15.8638 48.6958 15.7821 48.2566 14.1854C48.1645 13.8534 48.2317 13.4943 48.4551 13.1144C47.7003 13.4703 47.3989 13.5977 47.3837 13.6042C47.3185 13.6308 47.2499 13.6477 47.1798 13.6543C46.976 13.6717 27.2966 15.3359 19.5617 16.248L24.0868 16.2697C24.4078 16.273 24.6832 16.4994 24.7418 16.8139C24.8405 17.3331 24.8893 17.873 24.886 18.4183C24.8719 21.3581 23.4188 23.6601 21.5776 23.6601ZM21.5732 22.3268L21.5776 22.994V22.3268C22.4993 22.3268 23.536 20.7181 23.5468 18.4117C23.5479 18.1375 23.5349 17.8675 23.5067 17.602L15.8021 17.5639C14.2309 18.7481 13.2853 20.5744 12.716 22.2822L21.5732 22.3268ZM82.869 17.6575H82.8669C82.69 17.6575 82.5204 17.5869 82.3953 17.4614C82.2702 17.3359 82.2 17.1656 82.2 16.9881V16.692L76.4603 16.6637L76.4571 16.9587C76.4559 17.1358 76.3848 17.3051 76.2594 17.4296C76.1339 17.5541 75.9644 17.6235 75.788 17.6226H75.7848C75.608 17.6221 75.4386 17.5512 75.3138 17.4255C75.189 17.2998 75.119 17.1296 75.119 16.9522L75.12 16.5908C75.1233 15.892 75.6492 15.3282 76.3096 15.3282L82.3648 15.3587C82.6652 15.3609 82.9504 15.4828 83.1694 15.7027C83.4069 15.9421 83.5424 16.2828 83.5403 16.6344L83.5392 16.9935C83.5378 17.1707 83.4664 17.34 83.3408 17.4645C83.2152 17.5889 83.0455 17.6583 82.869 17.6575ZM110.216 17.7924H110.213C110.125 17.7923 110.039 17.7748 109.958 17.7411C109.877 17.7073 109.803 17.6579 109.742 17.5956C109.68 17.5333 109.631 17.4595 109.597 17.3782C109.564 17.2969 109.547 17.2099 109.547 17.122L109.548 16.827L103.807 16.7987L103.804 17.0948C103.802 17.2716 103.731 17.4407 103.606 17.565C103.48 17.6894 103.311 17.759 103.135 17.7587H103.132C102.955 17.7581 102.785 17.6871 102.661 17.5612C102.536 17.4353 102.466 17.2648 102.466 17.0871V16.728C102.47 16.0281 103.008 15.4741 103.656 15.4643L109.711 15.4948C110.364 15.497 110.891 16.0695 110.888 16.7682L110.886 17.1285C110.885 17.3056 110.813 17.475 110.688 17.5995C110.562 17.7239 110.393 17.7933 110.216 17.7924ZM111.588 13.8447H111.586L88.5545 13.8066C88.377 13.8065 88.2067 13.7361 88.0806 13.6107C88.0183 13.5488 87.9689 13.4751 87.9354 13.3938C87.9019 13.3124 87.8849 13.2252 87.8854 13.1373L87.9364 3.11289C87.9378 2.93592 88.009 2.76673 88.1344 2.64231C88.2597 2.51789 88.4291 2.44837 88.6054 2.44895L111.638 2.44024C111.726 2.43923 111.813 2.45583 111.894 2.48908C111.976 2.52233 112.05 2.57157 112.112 2.6339C112.175 2.69623 112.224 2.77041 112.257 2.8521C112.291 2.93378 112.308 3.02133 112.307 3.10962L112.257 13.1808C112.255 13.3578 112.184 13.5269 112.059 13.6514C111.934 13.7758 111.764 13.8453 111.588 13.8447ZM89.2289 12.4744L110.921 12.5092L110.964 3.77356L89.2723 3.78335L89.2289 12.4744ZM134.41 13.8806H134.409L114.702 13.8502C114.525 13.8499 114.355 13.779 114.23 13.6531C114.105 13.5272 114.034 13.3565 114.034 13.1786L114.084 3.102C114.086 2.92504 114.157 2.75585 114.282 2.63143C114.407 2.50701 114.577 2.43748 114.753 2.43807L124.888 2.43262C124.939 2.43262 124.989 2.43915 125.036 2.45004C128.907 3.32295 132.252 8.58003 134.467 12.0586L134.923 12.7737C135.006 12.8707 135.06 12.9898 135.078 13.1167C135.096 13.2436 135.078 13.373 135.024 13.4896C134.971 13.6062 134.886 13.705 134.779 13.7743C134.671 13.8437 134.546 13.8806 134.418 13.8806H134.41ZM115.377 12.5179L133.189 12.5462C131.221 9.45512 128.037 4.55722 124.811 3.76812L115.42 3.77247L115.377 12.5179ZM54.9332 11.1683V11.1661L54.9343 10.9659C52.7536 11.1639 49.9168 13.0926 49.5828 13.823C50.0198 14.1255 51.8438 14.5304 54.0039 14.5304C54.404 14.5304 54.7011 14.5141 54.9169 14.4956L54.9332 11.263V11.1683ZM56.267 12.4222L84.7732 12.4679L84.8166 3.78553L75.4486 3.78771L73.3156 3.78662H73.2278C66.7085 3.78662 61.9025 7.34685 57.6615 10.4869C57.1909 10.8363 56.7289 11.1792 56.2713 11.5112L56.268 12.0662L56.267 12.4222ZM98.4711 39.0994H98.4625L46.6127 38.4376C46.4423 38.4361 46.2789 38.3692 46.1561 38.2506C46.0333 38.132 45.9603 37.9707 45.9523 37.7998C45.8856 36.176 45.5522 34.5745 44.9655 33.0597L44.1577 31.3183L43.9993 31.0353C43.9513 30.9495 43.9018 30.8646 43.8508 30.7806L42.5647 28.9618C42.5051 28.8889 42.44 28.8127 42.376 28.7365L41.6191 27.918C41.5324 27.8309 41.4673 27.7678 41.4022 27.7047L40.8037 27.1572C40.731 27.0952 40.6594 27.0331 40.5868 26.9744L39.6976 26.2843L39.446 26.1102L38.7791 25.6791C38.6913 25.6247 38.5991 25.5714 38.508 25.517L37.5169 24.9923C37.428 24.9488 37.3369 24.9053 37.2447 24.8639L35.5021 24.1945L35.1768 24.0933L35.1302 24.0781L34.807 23.991L34.3733 23.8843C34.2929 23.8652 34.2123 23.847 34.1315 23.8299L34.0339 23.8092C33.9254 23.7875 33.8159 23.7646 33.7053 23.7439L33.6511 23.7352C33.5589 23.7178 33.4646 23.7026 33.3713 23.6873L32.8953 23.6188L32.6318 23.5872L32.5624 23.5807C32.4461 23.5683 32.3297 23.5574 32.2132 23.548L31.3901 23.5034C31.2749 23.4988 31.1596 23.4966 31.0442 23.4969H30.9683C27.3286 23.4938 23.8112 24.8151 21.0679 27.216C20.9449 27.3241 20.7868 27.3833 20.6233 27.3825L16.4593 27.3618C16.3958 27.375 16.3308 27.3786 16.2663 27.3727L16.186 27.3618L10.2273 27.3303C10.0035 27.3294 9.78848 27.4173 9.62903 27.5749C9.46958 27.7325 9.37866 27.947 9.37608 28.1716L9.3403 35.3313C9.34058 35.5559 9.42952 35.7712 9.58765 35.9301C9.74577 36.089 9.96019 36.1786 10.1839 36.1791L12.0025 36.1868C12.1178 36.1873 12.231 36.2177 12.3313 36.2748C12.4316 36.332 12.5155 36.4141 12.575 36.5133C13.153 37.482 14.1224 38.7195 15.4768 39.1875L17.1392 39.1963L17.1088 37.4765C17.1088 37.458 17.1088 37.4384 17.111 37.4178C17.2303 35.7797 17.6358 34.1939 18.3168 32.7049L18.6421 32.0453C18.6812 31.967 18.7213 31.8929 18.7614 31.82L19.1963 31.0799C19.244 31.0048 19.2917 30.9308 19.3416 30.8579L19.7135 30.3169C19.7927 30.2102 19.8697 30.1058 19.9499 30.0013L21.1904 28.6016L21.9983 27.8647C22.0666 27.8059 22.1306 27.7526 22.1946 27.7014L22.7606 27.2661C22.8365 27.2095 22.9081 27.1572 22.9818 27.1071L24.4002 26.2342L24.642 26.1091C24.7483 26.0546 24.8329 26.0111 24.9164 25.9719L25.2721 25.8065C25.3447 25.7738 25.413 25.7434 25.4835 25.7151L25.5431 25.6878L25.8088 25.579L26.4703 25.3352C26.5633 25.3026 26.657 25.2718 26.7511 25.2427L27.0342 25.1556L27.4148 25.0511L27.6425 24.9923L27.7477 24.9662L27.9928 24.9118L28.6911 24.7779C28.7887 24.7616 28.8885 24.7464 28.9882 24.7333L29.0663 24.7224C29.1455 24.7115 29.2268 24.7006 29.3081 24.6919L29.3819 24.6832C29.4599 24.6734 29.5391 24.6647 29.6183 24.6582L29.6931 24.6506L30.0043 24.6255L30.72 24.5951L31.0345 24.5929L31.3544 24.5983L31.7827 24.6168C31.89 24.6223 31.9909 24.6288 32.0917 24.6386L32.5125 24.6789C32.5905 24.6854 32.673 24.6963 32.7543 24.7061L32.8226 24.717C32.9235 24.7279 33.0265 24.7442 33.1295 24.7594L33.8517 24.8922C33.9514 24.9129 34.049 24.9336 34.1477 24.9575L34.8059 25.1273L34.8493 25.1404C34.9437 25.1665 35.0337 25.1948 35.1258 25.2242L35.5238 25.3548L35.7721 25.4419L35.796 25.4517C35.8042 25.4539 35.8121 25.4568 35.8198 25.4604L36.4737 25.7216L36.734 25.837L37.9962 26.49L39.1033 27.2127C39.1727 27.2617 39.2378 27.3096 39.3018 27.3575L39.7692 27.7221L39.9785 27.8963L41.0997 28.9618C41.1572 29.0206 41.2136 29.0815 41.2689 29.1447L41.6506 29.5822C41.7211 29.666 41.7915 29.7531 41.862 29.8413L42.2307 30.3256L42.4476 30.6304L42.8087 31.1855C42.8597 31.2682 42.9095 31.3498 42.9572 31.4325L43.237 31.9289L43.3596 32.1629L43.6762 32.8268C44.3682 34.3777 44.7654 36.0448 44.8473 37.7421V39.0613C44.8397 39.218 44.8311 39.3639 44.8213 39.501L99.5707 40.1987C99.5932 40.038 99.6727 39.8908 99.7946 39.7842C99.9165 39.6776 100.073 39.6188 100.234 39.6186H100.304C100.258 39.1407 100.234 38.6607 100.237 38.184C100.265 32.6298 103.652 27.6296 108.747 25.4952C108.773 25.4793 108.801 25.4654 108.83 25.4538C108.934 25.4114 109.038 25.3722 109.145 25.3319C109.169 25.3226 109.193 25.3146 109.218 25.308L109.507 25.2024L109.598 25.1708L109.64 25.1556H109.642L109.645 25.1534C109.798 25.1034 109.95 25.0544 110.105 25.0087H110.108L110.159 24.9923L110.2 24.9815C110.759 24.8137 111.329 24.6839 111.906 24.5929C112.479 24.4995 113.058 24.4424 113.638 24.422H113.703C113.855 24.4166 114.009 24.4111 114.163 24.4111L114.366 24.4144C114.61 24.4198 114.853 24.4307 115.093 24.447L115.328 24.4655C117.784 24.6785 120.139 25.5447 122.15 26.9749C124.161 28.4052 125.757 30.3477 126.771 32.6026C126.83 32.6615 126.877 32.7309 126.91 32.8072C127.853 34.9932 128.211 37.3883 127.949 39.7557L139.61 39.8123C139.84 39.8138 140.061 39.7239 140.225 39.5624C140.389 39.4009 140.483 39.1808 140.486 38.9503L140.512 33.7748L140.507 33.715C140.502 33.593 140.529 33.4718 140.587 33.3644C140.645 33.257 140.731 33.1675 140.836 33.1054L140.85 30.2821L139.906 30.2766L139.874 30.2777H139.871L127.089 30.2146C126.981 30.2137 126.874 30.1868 126.779 30.136C126.683 30.0853 126.601 30.0122 126.539 29.9229C125.348 28.1811 123.805 26.7102 122.01 25.6056C120.216 24.501 118.21 23.7873 116.123 23.511L115.982 23.4936C115.756 23.465 115.53 23.4421 115.304 23.425L115.033 23.4032C114.957 23.3988 114.88 23.3952 114.804 23.3924C114.769 23.3924 114.736 23.3924 114.702 23.3902L114.656 23.3891H114.627L114.396 23.3793H114.386C114.31 23.376 114.233 23.3717 114.155 23.3717C114.092 23.3717 114.039 23.3739 113.986 23.3771L113.936 23.3793L113.81 23.3847C113.636 23.388 113.461 23.3913 113.285 23.4011C107.371 23.7113 102.221 27.4348 100.091 32.9161C100.094 33.0013 100.081 33.0864 100.051 33.1664C99.4525 34.791 99.1428 36.5085 99.1359 38.2406L99.138 38.3092C99.1576 38.4065 99.1551 38.5071 99.1306 38.6033C99.1062 38.6996 99.0604 38.7891 98.9967 38.8651C98.9331 38.9411 98.8531 39.0018 98.7629 39.0425C98.6726 39.0833 98.5744 39.1031 98.4755 39.1005H98.4711V39.0994ZM18.718 15.0072C25.6581 14.1462 45.2995 12.4766 46.9554 12.3351C47.1365 12.2556 47.5876 12.0521 48.4171 11.6537C56.1021 5.88401 64.929 0 72.2085 0H72.2735L114.254 0.2068L135.835 0.296051C135.936 0.296341 136.036 0.319594 136.127 0.364073C136.218 0.408552 136.298 0.473107 136.361 0.552918C136.423 0.632184 136.467 0.724849 136.488 0.823746C136.509 0.922643 136.508 1.02512 136.483 1.12325C136.468 1.18311 136.111 2.60895 135.479 3.49383C135.313 3.7224 134.919 4.16104 133.445 5.33762C136.139 9.17757 139.851 15.9867 140.014 16.2871C140.044 16.3416 140.065 16.3993 140.079 16.458C140.101 16.5527 140.598 18.7775 140.586 20.9597C140.581 22.3573 140.56 26.3561 140.547 28.9455L141.475 28.9498C141.501 28.9498 141.528 28.9509 141.554 28.9553C141.721 28.9627 141.88 29.0326 141.998 29.1512C142.123 29.2764 142.193 29.4473 142.192 29.6247L142.172 33.6845C142.171 33.7992 142.141 33.9119 142.084 34.0115C142.027 34.111 141.946 34.1941 141.848 34.2526L141.824 38.9546C141.818 39.5386 141.582 40.0967 141.168 40.5071C140.754 40.9176 140.196 41.1471 139.614 41.1456L127.178 41.0836C127.082 41.0834 126.986 41.0622 126.899 41.0215C126.811 40.9808 126.734 40.9215 126.671 40.8477C126.609 40.7739 126.563 40.6873 126.538 40.5941C126.512 40.5008 126.506 40.4031 126.522 40.3075C126.901 38.0218 126.638 35.6752 125.763 33.531C125.707 33.4729 125.663 33.4055 125.631 33.3318C124.733 31.2483 123.291 29.4474 121.456 28.1202C119.621 26.793 117.463 25.989 115.21 25.7934L115 25.776C114.784 25.7619 114.564 25.7521 114.343 25.7477L114.199 25.7434C114.031 25.7423 113.885 25.7477 113.746 25.7532L113.486 25.7619C112.608 25.8075 111.738 25.9454 110.889 26.1733L110.716 26.2201L110.7 26.2266L110.518 26.2767C110.336 26.3311 110.158 26.3888 109.98 26.4508C104.97 28.2119 101.603 32.9269 101.576 38.1895C101.572 38.8197 101.619 39.4564 101.71 40.0833C101.742 40.1837 101.749 40.2902 101.732 40.3941C101.715 40.4979 101.674 40.5963 101.612 40.6811C101.549 40.7659 101.468 40.8349 101.375 40.8823C101.281 40.9297 101.177 40.9543 101.073 40.954L101.064 40.9551H100.898C100.878 41.1177 100.8 41.2673 100.677 41.3753C100.554 41.4833 100.396 41.5422 100.233 41.5407H100.226L44.1663 40.8256C44.0226 40.8241 43.8833 40.7762 43.7688 40.6889C43.6544 40.6017 43.5709 40.4798 43.5309 40.3413C43.4538 40.2145 43.4214 40.0654 43.4387 39.9179C43.4691 39.6556 43.4929 39.3628 43.5081 39.0265L43.5103 37.7726C43.4326 36.2529 43.0748 34.7609 42.4552 33.3721L42.1624 32.7604C42.1301 32.6966 42.0972 32.6331 42.0637 32.5699L41.8013 32.1063C41.7578 32.0313 41.7133 31.9569 41.6679 31.8831L41.3404 31.3825C41.2775 31.291 41.2125 31.1974 41.1452 31.1071L40.8156 30.6717C40.752 30.5921 40.6873 30.5133 40.6215 30.4355L40.2767 30.0383L40.1281 29.8783L39.1066 28.9096C39.0459 28.8571 38.9845 28.8056 38.9223 28.755L38.4928 28.4187C38.4365 28.3764 38.3798 28.3347 38.3226 28.2935L36.978 27.4478L36.1755 27.0484L35.9489 26.9471L35.3525 26.7077C35.3439 26.706 35.3356 26.7034 35.3275 26.7001C35.2408 26.6674 35.167 26.6413 35.0933 26.6174L34.7235 26.4944C34.6455 26.4726 34.563 26.4454 34.4806 26.4214C34.4638 26.416 34.4468 26.4109 34.4297 26.4062L33.8365 26.2538C33.7514 26.2336 33.6661 26.2144 33.5806 26.1961L32.9137 26.0742L32.6534 26.0372L32.583 26.0285C32.513 26.0191 32.4428 26.0108 32.3726 26.0035L31.9757 25.9643L31.7089 25.9469L31.3131 25.9306L31.029 25.924C30.9379 25.924 30.8425 25.9262 30.7471 25.9284L30.0954 25.9556L29.82 25.9774L29.7473 25.985C29.6746 25.9926 29.6063 25.998 29.5369 26.0068L29.461 26.0155L29.2463 26.0416L29.1704 26.0536C29.0869 26.0644 28.9991 26.0786 28.9134 26.0927L27.9624 26.2876C27.8952 26.303 27.8283 26.3197 27.7618 26.3376L27.4094 26.4356C27.3335 26.4574 27.2576 26.4824 27.1806 26.5063C27.0721 26.539 26.9908 26.5662 26.9084 26.5945L26.3033 26.8187C26.2296 26.847 26.1515 26.8797 26.0734 26.9123L25.4987 27.1725L25.271 27.2846L23.7474 28.201L23.5566 28.3371L23.0447 28.7322C22.9851 28.7791 22.9261 28.827 22.868 28.8758L21.5927 30.1155L21.0256 30.7947C20.9389 30.9079 20.8684 31.0026 20.7979 31.0995L20.4585 31.5914C20.4118 31.66 20.3717 31.7221 20.3338 31.7852L19.5335 33.2633C18.9245 34.5942 18.5573 36.0236 18.4491 37.4842L18.4903 39.8537C18.4913 39.9427 18.4747 40.0311 18.4413 40.1136C18.4079 40.1961 18.3584 40.2711 18.2959 40.3342C18.2333 40.3974 18.1588 40.4473 18.0767 40.4813C17.9947 40.5152 17.9067 40.5323 17.818 40.5317L15.363 40.5209C15.2956 40.5196 15.2287 40.5086 15.1645 40.4882C13.8286 40.0681 12.6108 39.0439 11.6251 37.519L10.1774 37.5125C9.59955 37.5113 9.04572 37.2801 8.6375 36.8695C8.22927 36.459 8 35.9026 8 35.3226L8.03579 28.1629C8.04264 27.5857 8.27605 27.0345 8.68535 26.629C9.09465 26.2235 9.64679 25.9963 10.2219 25.997H10.5754C10.7966 23.6405 12.0393 15.8322 18.7191 15.0061L18.718 15.0072ZM136.757 27.8309C136.784 27.829 136.811 27.829 136.838 27.8309L139.168 27.8429L139.199 21.0261L136.864 21.0131H136.859L136.306 21.0098L136.277 27.8277L136.757 27.8309ZM137.54 19.6819L138.381 19.6874L139.178 19.6906C139.099 18.7439 138.963 17.8028 138.77 16.8727L138.364 16.1402L137.558 16.1348L137.54 19.6819ZM31.0757 49.9999C29.5303 50.0053 27.9992 49.7026 26.5712 49.1094C25.1433 48.5162 23.8469 47.6442 22.7574 46.5442C18.216 41.9739 18.2539 34.577 22.8387 30.0524C25.0341 27.8824 27.9945 26.6705 31.0757 26.6805C32.6208 26.6749 34.1518 26.9773 35.5795 27.5704C37.0073 28.1634 38.3035 29.0352 39.3929 30.1351C40.4719 31.22 41.3263 32.5087 41.9067 33.9267C42.4871 35.3446 42.782 36.864 42.7745 38.3969C42.7669 39.9299 42.457 41.4462 41.8627 42.8584C41.2683 44.2705 40.4013 45.5506 39.3116 46.6247C37.1048 48.8016 34.1803 49.9988 31.0757 49.9988V49.9999ZM31.0757 28.0127C28.3469 28.0045 25.7254 29.0787 23.7821 31.0015C22.817 31.9527 22.049 33.0863 21.5226 34.3368C20.9961 35.5874 20.7215 36.9302 20.7146 38.2878C20.7078 39.6454 20.9688 40.9909 21.4826 42.2468C21.9964 43.5026 22.7529 44.6439 23.7084 45.6049C24.6736 46.5789 25.8218 47.3511 27.0864 47.8767C28.351 48.4022 29.7069 48.6707 31.0757 48.6666C33.8044 48.6745 36.4257 47.6003 38.3692 45.6778C39.3344 44.7266 40.1024 43.593 40.6288 42.3424C41.1553 41.0918 41.4298 39.749 41.4366 38.3913C41.4433 37.0337 41.1822 35.6881 40.6682 34.4323C40.1542 33.1765 39.3975 32.0352 38.4419 31.0744C37.4773 30.0998 36.3294 29.3272 35.0649 28.8016C33.8003 28.276 32.4443 28.0078 31.0757 28.0127ZM31.0757 47.0133C29.9259 47.0176 28.7867 46.7926 27.7243 46.3513C26.6619 45.9099 25.6975 45.2611 24.8871 44.4424C24.0812 43.6377 23.4433 42.6797 23.0106 41.6245C22.5779 40.5694 22.3591 39.4382 22.367 38.2972C22.37 37.1559 22.5999 36.0267 23.043 34.9756C23.4862 33.9245 24.1337 32.9727 24.9478 32.1759C26.5799 30.5601 28.7822 29.6575 31.0746 29.6649C31.4172 29.6649 31.7556 29.6845 32.0896 29.7226C32.1329 29.7237 32.1763 29.7292 32.2175 29.739C34.1295 29.985 35.9053 30.8636 37.2642 32.2358C38.1725 33.1462 38.8656 34.2496 39.2925 35.4646C39.7195 36.6796 39.8694 37.9752 39.7312 39.2561L39.728 39.2909C39.5112 41.2694 38.6188 43.1115 37.2024 44.5045C35.57 46.1194 33.3677 47.0212 31.0757 47.0133ZM30.348 40.4207C30.4564 40.4206 30.5632 40.4467 30.6593 40.4969C30.772 40.543 30.8695 40.6202 30.9403 40.7196C31.0111 40.819 31.0524 40.9365 31.0594 41.0585L31.3999 45.6735L31.4324 45.6713L31.8185 41.0629C31.8292 40.9368 31.8755 40.8164 31.952 40.7158C32.0284 40.6152 32.1318 40.5385 32.25 40.4947L32.275 40.4806C32.3898 40.4334 32.5153 40.4189 32.6377 40.4387C32.7601 40.4585 32.8748 40.5118 32.969 40.5927L36.3306 43.4846L36.3761 43.4389L33.5079 40.0605C33.4277 39.9665 33.3752 39.8518 33.3566 39.7294C33.3381 39.6071 33.354 39.4819 33.4027 39.3682L33.4234 39.3236C33.471 39.2102 33.5492 39.1124 33.6492 39.0413C33.7492 38.9701 33.867 38.9284 33.9894 38.9209L38.4354 38.5954L38.4386 38.5334L33.9927 38.1633C33.87 38.1536 33.7524 38.1101 33.6529 38.0375C33.5534 37.9649 33.4758 37.866 33.4288 37.7519L33.4103 37.7084C33.3635 37.5944 33.3493 37.4695 33.3692 37.3478C33.3891 37.2261 33.4424 37.1124 33.5231 37.0194L36.5941 33.4755C36.589 33.4693 36.584 33.4632 36.5789 33.457L32.9885 36.4828C32.887 36.5676 32.763 36.6207 32.6318 36.6356C32.5006 36.6505 32.3679 36.6265 32.25 36.5666C32.14 36.5152 32.0449 36.4364 31.9738 36.3377C31.9026 36.2391 31.8577 36.1238 31.8434 36.0028L31.4877 31.1811L31.0843 35.9985C31.0738 36.1215 31.0294 36.2392 30.956 36.3384C30.8827 36.4376 30.7833 36.5143 30.669 36.5601L30.6267 36.5775C30.5123 36.6243 30.3873 36.6386 30.2654 36.619C30.1434 36.5995 30.0291 36.5467 29.9349 36.4665L26.261 33.3068L29.396 36.9966C29.4825 37.0978 29.5367 37.2229 29.5514 37.3555C29.5661 37.4881 29.5406 37.6221 29.4784 37.7399C29.4312 37.8529 29.3533 37.9501 29.2536 38.0206C29.1538 38.0911 29.0363 38.1319 28.9145 38.1383L24.0749 38.492L28.9112 38.8958C29.035 38.9058 29.1535 38.9502 29.2534 39.0241C29.3534 39.0979 29.4309 39.1982 29.4773 39.3138L29.4936 39.3497C29.5404 39.4637 29.5546 39.5886 29.5347 39.7103C29.5148 39.832 29.4615 39.9457 29.3808 40.0387L26.2068 43.7023L29.9154 40.5775C30.0372 40.4756 30.1906 40.4198 30.3491 40.4196L30.348 40.4207ZM27.2283 44.5894C28.0893 45.1184 29.0457 45.459 30.0509 45.5973L29.8156 42.4093L27.2283 44.5894ZM33.0482 42.4245L32.7933 45.4688C33.6873 45.2563 34.5334 44.8767 35.2874 44.3499L33.0482 42.4245ZM23.8591 39.8156C24.0804 40.9003 24.5484 41.9191 25.2265 42.7924L27.5406 40.1214L23.8591 39.8156ZM35.346 40.1584L37.2274 42.3755C37.7183 41.6365 38.0694 40.8129 38.263 39.9462L35.346 40.1584ZM35.3622 36.94L38.3421 37.187C38.1968 36.2679 37.8765 35.3854 37.3987 34.5879L35.3622 36.94ZM25.1213 34.0339C24.4453 34.9628 23.9969 36.0386 23.8125 37.174L27.5568 36.9019L25.1213 34.0339ZM32.8335 31.2181L33.0872 34.6521L35.5856 32.546C34.7721 31.9131 33.834 31.4605 32.8335 31.2181ZM27.0298 32.2075L29.8547 34.6347L30.1539 31.0646C29.0392 31.1993 27.9704 31.5904 27.0309 32.2075H27.0298ZM31.9876 40.5067H31.9844L30.8978 40.5013C30.8099 40.501 30.7229 40.4834 30.6418 40.4494C30.5607 40.4155 30.487 40.3657 30.425 40.3032L29.6605 39.5347C29.5988 39.4726 29.5499 39.3987 29.5168 39.3174C29.4836 39.2362 29.4669 39.1491 29.4675 39.0613L29.4719 37.9783C29.4729 37.802 29.5445 37.6333 29.6714 37.5081L30.4424 36.7462C30.5032 36.6819 30.5771 36.6314 30.659 36.5982C30.741 36.5649 30.8291 36.5497 30.9173 36.5536L32.005 36.5579C32.1817 36.5601 32.352 36.6298 32.4767 36.7549L33.2423 37.5255C33.367 37.6518 33.4375 37.8216 33.4364 37.999L33.4309 39.0809C33.4304 39.1685 33.4126 39.2552 33.3786 39.3359C33.3445 39.4166 33.2949 39.4897 33.2325 39.5511L32.4593 40.3141C32.3334 40.4379 32.1639 40.5071 31.9876 40.5067ZM31.1819 39.168L31.7133 39.1723L32.0928 38.7979L32.095 38.2678L31.7209 37.8901L31.1884 37.8891L30.81 38.2613L30.8078 38.7924L31.1819 39.168ZM114.355 49.9999C112.81 50.0053 111.279 49.7026 109.851 49.1094C108.423 48.5162 107.126 47.6442 106.037 46.5442C101.495 41.9739 101.533 34.577 106.119 30.0524C108.314 27.8824 111.274 26.6705 114.355 26.6805C117.503 26.6805 120.458 27.9061 122.672 30.1351C123.751 31.22 124.606 32.5086 125.186 33.9266C125.767 35.3445 126.062 36.8638 126.054 38.3967C126.047 39.9296 125.737 41.4459 125.143 42.8581C124.549 44.2703 123.682 45.5505 122.592 46.6247C120.384 48.8016 117.46 49.9988 114.356 49.9988L114.355 49.9999ZM114.355 28.0127C111.626 28.0047 109.005 29.0789 107.062 31.0015C106.097 31.9528 105.329 33.0864 104.802 34.3369C104.276 35.5875 104.001 36.9302 103.995 38.2878C103.988 39.6453 104.249 40.9908 104.762 42.2467C105.276 43.5025 106.033 44.6439 106.988 45.6049C107.953 46.5789 109.101 47.3511 110.366 47.8767C111.631 48.4022 112.986 48.6707 114.355 48.6666C117.084 48.6749 119.705 47.6006 121.649 45.6778C122.614 44.7266 123.382 43.593 123.908 42.3424C124.435 41.0918 124.709 39.749 124.716 38.3913C124.723 37.0337 124.462 35.6881 123.948 34.4323C123.434 33.1765 122.677 32.0352 121.721 31.0744C120.757 30.0998 119.609 29.3273 118.344 28.8017C117.08 28.2761 115.724 28.0079 114.355 28.0127ZM114.355 47.0133C113.206 47.0175 112.067 46.7925 111.004 46.3511C109.942 45.9098 108.978 45.261 108.168 44.4424C107.362 43.6378 106.723 42.6798 106.29 41.6247C105.858 40.5695 105.639 39.4383 105.646 38.2972C105.649 37.1559 105.879 36.0266 106.322 34.9756C106.766 33.9245 107.413 32.9727 108.227 32.1759C109.86 30.56 112.062 29.6574 114.355 29.6649C114.697 29.6649 115.035 29.6845 115.369 29.7226C115.412 29.7237 115.456 29.7292 115.497 29.739C117.409 29.985 119.185 30.8636 120.544 32.2358C121.626 33.3219 122.4 34.6785 122.785 36.1653C123.17 37.6521 123.153 39.2151 122.734 40.6928C122.213 42.5182 121.113 44.1231 119.6 45.2636C118.088 46.4042 116.246 47.0181 114.354 47.0122L114.355 47.0133ZM113.626 40.4207C113.735 40.4203 113.841 40.4461 113.938 40.4958C114.051 40.5423 114.148 40.6197 114.219 40.7192C114.29 40.8188 114.332 40.9364 114.339 41.0585L114.679 45.6735L114.712 45.6713L115.098 41.0629C115.109 40.9373 115.155 40.8174 115.231 40.7169C115.306 40.6164 115.409 40.5394 115.526 40.4947L115.556 40.4806C115.67 40.4339 115.795 40.4196 115.917 40.4394C116.039 40.4591 116.153 40.5122 116.247 40.5927L119.611 43.4846L119.656 43.4389L116.787 40.0605C116.708 39.9675 116.655 39.8542 116.636 39.7331C116.617 39.612 116.632 39.4879 116.679 39.3747L116.705 39.3203C116.752 39.2074 116.83 39.11 116.93 39.0394C117.03 38.9687 117.147 38.9277 117.269 38.9209L121.716 38.5954L121.718 38.5334L117.273 38.1633C117.152 38.1537 117.036 38.1111 116.937 38.0402C116.838 37.9692 116.761 37.8726 116.713 37.7606L116.691 37.7095C116.644 37.5954 116.629 37.4704 116.649 37.3484C116.668 37.2265 116.722 37.1125 116.803 37.0194L119.874 33.4744L119.858 33.457L116.269 36.4828C116.167 36.568 116.043 36.6213 115.911 36.6362C115.779 36.6511 115.646 36.6269 115.527 36.5666C115.418 36.5147 115.324 36.4357 115.253 36.3371C115.183 36.2384 115.138 36.1234 115.124 36.0028L114.768 31.1789L114.364 35.9985C114.353 36.1211 114.309 36.2384 114.237 36.3375C114.164 36.4366 114.065 36.5136 113.952 36.5601L113.908 36.5775C113.794 36.6247 113.668 36.6393 113.546 36.6197C113.423 36.6001 113.309 36.5471 113.214 36.4665L109.539 33.3079L112.675 36.9976C112.84 37.1936 112.879 37.4657 112.776 37.6986C112.677 37.925 112.44 38.1198 112.193 38.1394L107.353 38.4931L112.19 38.8969C112.439 38.9187 112.656 39.0765 112.754 39.3073L112.772 39.3508C112.819 39.4648 112.833 39.5897 112.813 39.7114C112.793 39.8331 112.74 39.9468 112.659 40.0398L109.486 43.7045L113.195 40.5785C113.316 40.477 113.469 40.4212 113.626 40.4207ZM110.508 44.5894C111.37 45.1184 112.325 45.459 113.33 45.5973L113.096 42.4093L110.508 44.5894ZM116.328 42.4245L116.073 45.4688C116.967 45.2562 117.813 44.8766 118.567 44.3499L116.328 42.4245ZM107.139 39.8156C107.36 40.9004 107.829 41.9192 108.507 42.7924L110.82 40.1214L107.139 39.8156ZM118.625 40.1584L120.507 42.3755C120.998 41.6366 121.349 40.813 121.542 39.9462L118.625 40.1584ZM118.642 36.94L121.621 37.187C121.476 36.2678 121.156 35.3853 120.678 34.5879L118.642 36.94ZM108.402 34.0339C107.726 34.9628 107.277 36.0386 107.092 37.174L110.837 36.9019L108.402 34.0339ZM116.114 31.2181L116.367 34.651L118.865 32.546C118.052 31.9131 117.114 31.4605 116.114 31.2181ZM110.31 32.2075L113.134 34.6347L113.433 31.0646C112.319 31.1993 111.25 31.5904 110.31 32.2075ZM115.268 40.5067H115.265L114.177 40.5013C114.089 40.501 114.002 40.4834 113.921 40.4494C113.84 40.4155 113.767 40.3657 113.705 40.3032L112.94 39.5347C112.878 39.4725 112.83 39.3986 112.797 39.3173C112.763 39.2361 112.747 39.1491 112.747 39.0613L112.752 37.9783C112.752 37.802 112.824 37.6333 112.951 37.5081L113.722 36.7462C113.849 36.6221 114.031 36.5688 114.197 36.5536L115.284 36.5579C115.462 36.559 115.632 36.6306 115.757 36.7571L116.522 37.5255C116.646 37.6518 116.716 37.8216 116.715 37.999L116.71 39.0809C116.71 39.1686 116.692 39.2553 116.658 39.336C116.624 39.4168 116.575 39.4899 116.512 39.5511L115.739 40.3141C115.613 40.4376 115.444 40.5068 115.268 40.5067ZM114.461 39.168L114.993 39.1723L115.372 38.7979L115.374 38.2678L115 37.8901L114.469 37.8891L114.09 38.2613L114.087 38.7924L114.461 39.168ZM145.961 25.0185C145.873 25.0183 145.786 25.0009 145.706 24.9671C145.625 24.9333 145.551 24.8838 145.49 24.8216C145.428 24.7593 145.379 24.6854 145.346 24.6042C145.313 24.5229 145.296 24.4359 145.296 24.348C145.297 24.1712 145.369 24.0023 145.494 23.8782C145.619 23.7541 145.789 23.6851 145.965 23.6862H145.969L177.13 23.8909C180.724 22.9701 181.476 20.7279 181.629 19.646L145.604 19.5023C145.516 19.5022 145.43 19.4847 145.349 19.451C145.268 19.4172 145.194 19.3678 145.133 19.3055C145.071 19.2433 145.022 19.1694 144.988 19.0881C144.955 19.0068 144.938 18.9198 144.938 18.8319C144.939 18.6549 145.011 18.4857 145.136 18.3613C145.261 18.2369 145.431 18.1674 145.607 18.1679H145.609L182.331 18.3138C182.676 18.3149 182.964 18.5783 182.994 18.9211C183 18.9679 183.339 23.5252 177.74 25.1088C176.054 30.1362 172.298 30.3049 171.805 30.3049L171.757 30.3038L171.588 30.3028C170.305 35.2115 166.836 35.6545 165.629 35.6545C165.461 35.6545 165.336 35.6469 165.27 35.6393L163.033 35.6066C163.03 35.6297 163.026 35.6526 163.021 35.6752C161.796 40.8289 158.226 41.286 156.999 41.286C156.827 41.286 156.701 41.2784 156.634 41.2719L145.555 40.9932C145.467 40.9913 145.381 40.972 145.301 40.9365C145.221 40.901 145.148 40.85 145.088 40.7865C145.027 40.7229 144.98 40.648 144.948 40.566C144.917 40.484 144.901 40.3965 144.903 40.3086C144.905 40.2206 144.924 40.1338 144.96 40.0532C144.995 39.9727 145.046 39.9001 145.11 39.8397C145.174 39.7793 145.249 39.7323 145.331 39.7014C145.414 39.6705 145.501 39.6564 145.589 39.6599L156.693 39.9386C156.718 39.9407 156.745 39.9418 156.77 39.9462C156.916 39.9647 160.419 40.3707 161.662 35.5881L145.759 35.3596C145.582 35.3573 145.414 35.2849 145.29 35.1582C145.167 35.0315 145.098 34.8609 145.1 34.6837C145.103 34.5079 145.175 34.3406 145.3 34.2176C145.425 34.0946 145.594 34.0259 145.769 34.0262H145.778L165.315 34.306C165.345 34.306 165.372 34.3092 165.401 34.3136C165.546 34.331 168.882 34.7196 170.2 30.294L145.88 30.1438C145.793 30.1436 145.706 30.1259 145.625 30.092C145.544 30.058 145.471 30.0083 145.409 29.9459C145.347 29.8834 145.298 29.8093 145.265 29.7279C145.232 29.6464 145.215 29.5592 145.216 29.4712C145.217 29.2945 145.289 29.1257 145.414 29.0017C145.539 28.8777 145.709 28.8086 145.885 28.8094H145.889L171.784 28.9705C171.916 28.9749 174.763 28.9792 176.271 25.2198L145.961 25.0185Z" fill="black"/>
</svg>
